<?xml version="1.0" encoding="UTF-8" standalone="no"?>
<!DOCTYPE svg PUBLIC "-//W3C//DTD SVG 1.1//EN" "http://www.w3.org/Graphics/SVG/1.1/DTD/svg11.dtd">
<svg width="100%" height="100%" viewBox="0 0 69 69" version="1.1" xmlns="http://www.w3.org/2000/svg" xmlns:xlink="http://www.w3.org/1999/xlink" xml:space="preserve" xmlns:serif="http://www.serif.com/" style="fill-rule:evenodd;clip-rule:evenodd;stroke-linejoin:round;stroke-miterlimit:2;">
    <g id="Curve" transform="matrix(1,0,0,1,-7.637,-8.26)">
        <path d="M62.131,23.958L72.338,23.958L67.235,32.799L75.696,47.455L63.093,69.285L54.631,54.628L41.667,77.083L28.702,54.628L20.24,69.285L7.637,47.455L16.099,32.799L10.995,23.958L21.203,23.958L30.266,8.26L41.667,28.007L53.067,8.26L62.131,23.958ZM29.905,52.545L41.667,72.917L53.428,52.545L41.667,32.173L29.905,52.545ZM17.302,34.882L10.043,47.455L20.24,65.118L27.499,52.545L17.302,34.882ZM66.032,34.882L55.834,52.545L63.093,65.118L73.291,47.455L66.032,34.882ZM38.126,26.042L14.603,26.042L28.702,50.462L40.464,30.09L38.126,26.042ZM45.207,26.042L42.869,30.09L54.631,50.462L68.73,26.042L45.207,26.042ZM23.608,23.958L36.924,23.958L30.266,12.427L23.608,23.958ZM46.41,23.958L59.725,23.958L53.067,12.427L46.41,23.958Z" style="fill:white;"/>
    </g>
</svg>
